<svg width="76" height="80" viewBox="0 0 76 80" fill="none" xmlns="http://www.w3.org/2000/svg">
<path d="M0 0H76V38V61L66.5 70.5L57 80H38H0V0Z" fill="#5DC0BF"/>
<path d="M49.7205 38.6408H39.3205C38.8001 38.6408 38.4001 38.2408 38.4001 37.7205V27.3205C38.4001 26.8002 37.9595 26.3611 37.4408 26.4002C33.8408 26.6799 30.7204 28.5205 28.6408 31.241C27.4408 30.5613 26.0408 30.1613 24.5612 30.1613C19.8408 30.1613 16.0408 34.0019 16.0408 38.6817C16.0408 43.3615 19.8814 47.2021 24.5612 47.2021C26.0815 47.2021 27.4815 46.7615 28.7204 46.0818C30.961 49.0021 34.4408 50.9226 38.2796 50.9614C44.8388 51.0411 50.2 46.041 50.6796 39.641C50.7202 39.0801 50.2796 38.641 49.7202 38.641L49.7205 38.6408ZM18.1597 38.6799C18.1597 35.1596 21.0003 32.3207 24.5189 32.3207C28.0392 32.3207 30.8781 35.1613 30.8781 38.6799C30.8781 42.2002 28.0374 45.0391 24.5189 45.0391C21.0001 45.0406 18.1597 42.1594 18.1597 38.6799Z" fill="#F3F3F3"/>
<path d="M42.6796 23.0408C42.1593 23.0002 41.7202 23.4408 41.7202 23.9611V34.3611C41.7202 34.8815 42.1202 35.2815 42.6405 35.2815H53.0405C53.5609 35.2815 53.9999 34.8408 53.9608 34.3221C53.5202 28.3205 48.7201 23.5205 42.6797 23.0409L42.6796 23.0408Z" fill="#F3F3F3"/>
<path d="M24.8795 37.8796H24.1999C23.9999 37.8796 23.8405 37.8 23.6795 37.639C23.5592 37.4796 23.4795 37.3187 23.5202 37.1187C23.5608 36.7593 23.8795 36.5187 24.2405 36.5187H24.9999C25.1999 36.5187 25.3592 36.639 25.3999 36.839C25.4405 36.9984 25.5592 37.1187 25.7592 37.1187H26.6389C26.7592 37.1187 26.8389 37.0781 26.9186 36.9984C26.9983 36.9187 26.9983 36.839 26.9983 36.7187C26.9186 35.7984 26.1983 35.0781 25.3186 34.9593V34.239C25.3186 34.039 25.1592 33.8796 24.9592 33.8796H24.0795C23.8795 33.8796 23.7202 34.039 23.7202 34.239V34.9999C22.5999 35.2406 21.7999 36.2796 21.9202 37.4406C22.0405 38.5999 23.0405 39.4812 24.2405 39.4812H24.7999C24.9999 39.4812 25.1592 39.5609 25.3202 39.7218C25.4405 39.8812 25.5202 40.0422 25.4795 40.2422C25.4389 40.6015 25.1202 40.8422 24.7592 40.8422H23.9999C23.7999 40.8422 23.6405 40.7218 23.5999 40.5218C23.5592 40.3625 23.4405 40.2422 23.2405 40.2422H22.3608C22.2405 40.2422 22.1608 40.2828 22.0811 40.3625C22.0014 40.4422 22.0014 40.5218 22.0014 40.6422C22.0811 41.5625 22.8014 42.2828 23.6811 42.4015V43.1218C23.6811 43.3218 23.8405 43.4812 24.0405 43.4812H24.9202C25.1202 43.4812 25.2795 43.3218 25.2795 43.1218V42.3625C26.2389 42.1219 26.9592 41.3625 27.0795 40.4031C27.1592 39.7625 26.9202 39.1234 26.5202 38.6438C26.1202 38.1594 25.5202 37.8797 24.8795 37.8797V37.8796Z" fill="#F3F3F3"/>
</svg>
