<svg width="76" height="80" viewBox="0 0 76 80" fill="none" xmlns="http://www.w3.org/2000/svg">
<path d="M0 0H76V38V61L66.5 70.5L57 80H38H0V0Z" fill="#D3FCFF"/>
<path fill-rule="evenodd" clip-rule="evenodd" d="M38.3756 23.838L52.1751 30.7003C52.5126 30.8508 52.6631 31.1883 52.6631 31.5258C52.2876 37.6753 50.7126 42.6253 48.2376 46.6753C45.7626 50.7253 42.4254 53.8008 38.4499 56.1631C38.1504 56.3502 37.8129 56.3136 37.5499 56.1631C33.6122 53.8006 30.2376 50.7253 27.7622 46.6753C25.3252 42.5875 23.75 37.6375 23.3745 31.4876C23.3366 31.1122 23.5616 30.8126 23.8625 30.6622L37.6242 23.8376C37.8492 23.6872 38.1502 23.7251 38.3752 23.8376L38.3756 23.838ZM39.3881 44.5002H36.5756C36.4631 44.5002 36.3885 44.4622 36.276 44.4622C35.826 44.3118 35.601 43.8252 35.7515 43.3752L36.6515 40.8257C36.2015 40.6007 35.7895 40.2252 35.5265 39.8132C35.227 39.3632 35.0385 38.8007 35.0385 38.2382C35.0385 37.4127 35.376 36.7012 35.9006 36.1752C36.4251 35.6507 37.1381 35.3132 37.9635 35.3132C38.751 35.3132 39.5006 35.6507 40.0265 36.1752C40.551 36.6997 40.8885 37.4127 40.8885 38.2382C40.8885 38.8007 40.7015 39.3632 40.4385 39.8132C40.1756 40.2252 39.7635 40.6007 39.3135 40.8257L40.1756 43.3387C40.2135 43.4512 40.2501 43.5637 40.2501 43.6762C40.2501 44.1248 39.8746 44.5002 39.3881 44.5002V44.5002Z" fill="#00E1F0"/>
</svg>
