<svg width="76" height="80" viewBox="0 0 76 80" fill="none" xmlns="http://www.w3.org/2000/svg">
<path d="M0 0H76V38V61L66.5 70.5L57 80H38H0V0Z" fill="#007F7F"/>
<path d="M26.5729 48.0831C26.9385 48.0831 27.2985 47.9875 27.6163 47.8046C26.7121 46.7542 26.7121 45.1989 27.6163 44.1485C27.0482 43.8236 26.3619 43.7815 25.7586 44.0346C25.1553 44.2863 24.7039 44.8052 24.5366 45.4366C24.3693 46.0694 24.5043 46.743 24.9036 47.2619C25.3016 47.7794 25.9189 48.0831 26.5728 48.0831L26.5729 48.0831Z" fill="#F3F3F3"/>
<path d="M28.6793 45.9767C28.6793 47.8203 27.6401 47.8203 27.6401 45.9767C27.6401 44.1331 28.6793 44.1331 28.6793 45.9767Z" fill="#F3F3F3"/>
<path d="M37.6118 44.7109H51.5337V47.2422H37.6118V44.7109Z" fill="#F3F3F3"/>
<path d="M29.7466 48.0831C30.4019 48.0831 31.0193 47.7807 31.4186 47.2619C31.8166 46.743 31.953 46.0694 31.7856 45.4366C31.6169 44.8037 31.1655 44.2848 30.5608 44.0331C29.9575 43.7814 29.2713 43.8236 28.7031 44.1484C29.6073 45.1989 29.6073 46.7542 28.7031 47.8046C29.0209 47.9874 29.3809 48.083 29.7465 48.083L29.7466 48.0831Z" fill="#F3F3F3"/>
<path d="M21.6172 33.8505H54.3829V38.1409H21.6172V33.8505Z" fill="#F3F3F3"/>
<path d="M21.6172 51.4977H54.3829V38.8444H21.6172V51.4977ZM36.9089 44.3596C36.9089 44.1656 37.0664 44.0081 37.2605 44.0081H51.8855C51.9783 44.0081 52.0683 44.0446 52.1344 44.1107C52.2005 44.1768 52.237 44.2668 52.237 44.3596V47.594C52.237 47.6868 52.2005 47.7768 52.1344 47.8429C52.0683 47.909 51.9783 47.9456 51.8855 47.9456H37.2605C37.0664 47.9456 36.9089 47.7881 36.9089 47.594V44.3596ZM26.5729 43.1671C27.1397 43.1671 27.6937 43.3387 28.1592 43.6607C29.0198 43.0701 30.1364 43.0054 31.0589 43.4906C31.9814 43.9771 32.5594 44.9334 32.5594 45.9768C32.5594 47.0202 31.9814 47.9765 31.0589 48.463C30.1364 48.9482 29.0198 48.8835 28.1606 48.2929H28.1592C27.4237 48.7977 26.4914 48.9229 25.649 48.629C24.8052 48.3365 24.1528 47.6601 23.8884 46.8079C23.624 45.9543 23.7815 45.0276 24.3117 44.309C24.8404 43.5918 25.68 43.1671 26.5729 43.1671L26.5729 43.1671Z" fill="#F3F3F3"/>
<path d="M21.6172 28.5023V33.147H54.3829V28.5023H21.6172ZM24.2961 30.9731H23.2569V30.27H24.2961V30.9731ZM31.8194 30.9731H25.127V30.27H31.8194V30.9731Z" fill="#F3F3F3"/>
</svg>
