<svg width="125" height="188" viewBox="0 0 125 188" fill="none" xmlns="http://www.w3.org/2000/svg">
<path d="M61.9474 120.973C57.9437 120.986 54.1072 122.717 51.2755 125.79C48.4438 128.863 46.847 133.028 46.8337 137.375V170.918C46.8337 175.27 48.4261 179.444 51.2604 182.521C54.0948 185.598 57.939 187.327 61.9474 187.327C65.9558 187.327 69.8 185.598 72.6344 182.521C75.4687 179.444 77.061 175.27 77.061 170.918V170.583V170.599V137.383C77.0497 133.037 75.4557 128.873 72.6269 125.799C69.7981 122.724 65.9641 120.99 61.9617 120.973H61.9474Z" fill="#008080" fill-opacity="0.7"/>
<path d="M116.711 20.4999H87.6247C84.1011 8.52408 73.9392 0 61.9401 0C49.941 0 39.7864 8.52409 36.3129 20.2895L36.2627 20.4999H7.55682C5.55263 20.4999 3.63052 21.3643 2.21334 22.903C0.796163 24.4416 0 26.5285 0 28.7045C0 30.8805 0.796163 32.9674 2.21334 34.506C3.63052 36.0447 5.55263 36.9091 7.55682 36.9091H36.6431C38.5663 43.9138 42.7431 49.6485 48.2331 53.2405L48.3479 53.3106C27.7442 60.066 12.9751 80.4256 12.8459 104.556V147.629C12.8758 151.207 14.1978 154.629 16.5275 157.16C18.8572 159.691 22.0087 161.128 25.3042 161.163H35.5092V137.788C35.5092 130.065 38.3347 122.659 43.3641 117.199C48.3936 111.738 55.2149 108.67 62.3276 108.67C69.4403 108.67 76.2617 111.738 81.2912 117.199C86.3206 122.659 89.1461 130.065 89.1461 137.788V161.163H99.3439C102.642 161.134 105.799 159.7 108.132 157.168C110.465 154.636 111.788 151.21 111.817 147.629V104.977C111.812 93.4753 108.388 82.2823 102.053 73.0631C95.7187 63.844 86.8124 57.0912 76.659 53.8093L76.3146 53.7158C81.9264 50.0804 86.0854 44.3006 87.9763 37.5091L88.0266 37.3065H117.113C119.115 37.3003 121.034 36.4339 122.45 34.8966C123.866 33.3593 124.664 31.276 124.67 29.1019C124.592 26.8468 123.732 24.7069 122.263 23.1105C120.794 21.5141 118.824 20.5789 116.747 20.4921H116.732L116.711 20.4999ZM61.9401 45.5033C58.9509 45.5033 56.0288 44.541 53.5434 42.7379C51.058 40.9348 49.1208 38.372 47.9769 35.3736C46.833 32.3752 46.5337 29.0759 47.1169 25.8928C47.7 22.7097 49.1395 19.7859 51.2532 17.491C53.3668 15.1961 56.0598 13.6333 58.9916 13.0001C61.9233 12.367 64.9622 12.6919 67.7239 13.9339C70.4855 15.1759 72.8459 17.2791 74.5066 19.9776C76.1674 22.6761 77.0538 25.8486 77.0538 29.0941L77.0609 29.5616C77.0609 38.3662 70.4873 45.5033 62.3779 45.5033L61.9258 45.4955H61.9473L61.9401 45.5033Z" fill="#008080"/>
</svg>
