<svg width="146" height="146" viewBox="0 0 146 146" fill="none" xmlns="http://www.w3.org/2000/svg">
<path d="M25.3472 24.3334H80.0972V121.667H25.3472V24.3334ZM80.0972 50.6945H118.625V121.667H80.0972V50.6945Z" fill="white"/>
<path d="M34.4722 81.1112H38.5277V91.25H34.4722V81.1112ZM50.6944 81.1112H54.7499V91.25H50.6944V81.1112ZM66.9166 81.1112H70.9722V91.25H66.9166V81.1112ZM89.2222 60.8334H93.2777V70.9723H89.2222V60.8334ZM105.444 60.8334H109.5V70.9723H105.444V60.8334ZM89.2222 81.1112H93.2777V91.25H89.2222V81.1112ZM105.444 81.1112H109.5V91.25H105.444V81.1112ZM89.2222 101.389H93.2777V111.528H89.2222V101.389ZM105.444 101.389H109.5V111.528H105.444V101.389Z" fill="#45AAA9" stroke="#45AAA9" stroke-width="2" stroke-miterlimit="10" stroke-linecap="round" stroke-linejoin="round"/>
<path d="M39.5417 101.389H65.9029V121.667H39.5417V101.389Z" fill="#45AAA9"/>
<path d="M25.3472 24.3334H80.0972V121.667H25.3472V24.3334ZM80.0972 50.6945H118.625V121.667H80.0972V50.6945Z" stroke="#046B5F" stroke-width="2" stroke-miterlimit="10" stroke-linecap="round" stroke-linejoin="round"/>
<path d="M52.7222 121.667V101.389M109.5 70.9723H105.444V60.8334M109.5 91.25H105.444V81.1112M109.5 111.528H105.444V101.389M93.2777 70.9723H89.2222V60.8334M54.7499 91.25H50.6944V81.1112M70.9722 91.25H66.9166V81.1112M38.5277 91.25H34.4722V81.1112M93.2777 91.25H89.2222V81.1112M93.2777 111.528H89.2222V101.389M39.5416 101.389H65.9027V121.667H39.5416V101.389Z" stroke="#046B5F" stroke-width="2" stroke-miterlimit="10" stroke-linecap="round" stroke-linejoin="round"/>
<path d="M36.5 36.5H68.9445V40.5556H36.5V36.5ZM36.5 48.6667H68.9445V52.7222H36.5V48.6667ZM50.6944 52.7222H54.75V66.9167H50.6944V52.7222Z" fill="#046B5F" stroke="#046B5F" stroke-width="2" stroke-miterlimit="10" stroke-linecap="round" stroke-linejoin="round"/>
</svg>
