<svg width="577" height="572" viewBox="0 0 577 572" fill="none" xmlns="http://www.w3.org/2000/svg">
<ellipse cx="288.5" cy="286" rx="288.5" ry="286" fill="#45AAA9" fill-opacity="0.25"/>
<path opacity="0.8" fill-rule="evenodd" clip-rule="evenodd" d="M332.61 225.504C347.143 232.642 359.423 244.159 367.96 258.655C376.496 273.15 380.921 290.002 380.698 307.161L380.064 356.374C379.929 366.816 375.935 376.78 368.958 384.075C361.982 391.37 352.595 395.397 342.864 395.272L332.131 395.134C333.101 398.218 333.608 401.551 333.564 404.996L333.057 444.367C332.956 452.198 329.96 459.671 324.727 465.142C319.495 470.613 312.455 473.634 305.157 473.54L286.81 473.304C279.512 473.21 272.552 470.008 267.462 464.404C262.373 458.8 259.57 451.253 259.671 443.421L260.178 404.051C260.223 400.606 260.816 397.286 261.865 394.228L251.132 394.09C241.4 393.965 232.121 389.697 225.335 382.225C218.549 374.753 214.812 364.689 214.946 354.247L215.58 305.034C215.796 287.874 220.653 271.141 229.561 256.87C238.468 242.598 251.042 231.402 265.756 224.643C256.707 217.027 250.117 206.555 246.911 194.699C243.706 182.844 244.047 170.202 247.886 158.551C251.725 146.901 258.87 136.828 268.315 129.75C277.76 122.672 289.029 118.945 300.539 119.094C312.048 119.242 323.218 123.258 332.478 130.577C341.737 137.895 348.62 148.149 352.158 159.894C355.696 171.64 355.711 184.287 352.201 196.056C348.692 207.824 341.833 218.123 332.592 225.504L332.61 225.504Z" fill="white"/>
<path d="M320.945 316.236C320.878 321.457 318.881 326.439 315.392 330.086C311.904 333.733 307.211 335.747 302.345 335.685C297.48 335.622 292.84 333.488 289.447 329.752C286.054 326.016 284.185 320.984 284.253 315.763C284.32 310.542 286.317 305.56 289.805 301.913C293.294 298.265 297.987 296.252 302.853 296.314C307.718 296.377 312.358 298.511 315.751 302.247C319.144 305.983 321.013 311.015 320.945 316.236V316.236ZM256.733 315.409C256.666 320.629 254.668 325.612 251.18 329.259C247.692 332.906 242.999 334.92 238.133 334.857C233.267 334.795 228.627 332.661 225.234 328.925C221.841 325.189 219.973 320.157 220.04 314.936C220.107 309.715 222.105 304.733 225.593 301.086C229.081 297.438 233.774 295.424 238.64 295.487C243.506 295.55 248.146 297.684 251.539 301.42C254.932 305.156 256.8 310.188 256.733 315.409V315.409Z" fill="#45AAA9"/>
<path fill-rule="evenodd" clip-rule="evenodd" d="M271.761 217.16C278.988 217.253 286.165 215.818 292.881 212.936C299.597 210.054 305.721 205.782 310.902 200.364C316.084 194.946 320.222 188.488 323.08 181.359C325.938 174.23 327.461 166.569 327.561 158.813C327.66 151.058 326.336 143.36 323.662 136.16C320.988 128.959 317.018 122.397 311.978 116.847C306.938 111.297 300.926 106.869 294.287 103.815C287.647 100.761 280.51 99.1417 273.282 99.0486C258.685 98.8606 244.605 104.902 234.141 115.844C223.676 126.786 217.684 141.733 217.482 157.395C217.28 173.058 222.886 188.153 233.065 199.361C243.244 210.569 257.163 216.972 271.761 217.16V217.16ZM273.029 118.734C282.76 118.859 292.04 123.127 298.826 130.599C305.612 138.071 309.349 148.135 309.214 158.577C309.08 169.019 305.085 178.983 298.108 186.278C291.132 193.572 281.746 197.6 272.014 197.475C262.283 197.349 253.003 193.081 246.217 185.609C239.431 178.137 235.694 168.073 235.829 157.632C235.963 147.19 239.958 137.226 246.934 129.931C253.911 122.636 263.297 118.608 273.029 118.734ZM279.159 355.074L260.812 354.838C253.514 354.744 246.474 357.765 241.242 363.236C236.009 368.707 233.013 376.18 232.912 384.011L232.405 423.382C232.304 431.213 235.107 438.761 240.196 444.365C245.286 449.969 252.246 453.17 259.544 453.264L277.891 453.5C285.189 453.594 292.229 450.573 297.461 445.102C302.694 439.631 305.69 432.158 305.791 424.327L306.298 384.957C306.399 377.125 303.596 369.577 298.507 363.973C293.417 358.369 286.457 355.168 279.159 355.074ZM251.259 384.248C251.292 381.637 252.291 379.146 254.035 377.322C255.779 375.499 258.126 374.492 260.559 374.523L278.905 374.759C281.338 374.791 283.658 375.858 285.354 377.726C287.051 379.594 287.985 382.11 287.951 384.72L287.444 424.091C287.411 426.701 286.412 429.192 284.668 431.016C282.924 432.839 280.577 433.846 278.144 433.815L259.798 433.579C257.365 433.547 255.045 432.48 253.349 430.612C251.652 428.744 250.718 426.228 250.751 423.618L251.259 384.248Z" fill="#008080"/>
<path d="M373.49 154.483C369.841 154.436 366.361 152.835 363.816 150.033C361.271 147.231 359.87 143.457 359.92 139.542C359.971 135.626 361.469 131.889 364.085 129.154C366.701 126.418 370.221 124.908 373.87 124.955L410.563 125.428C414.213 125.475 417.692 127.075 420.237 129.877C422.782 132.679 424.183 136.453 424.133 140.369C424.082 144.285 422.584 148.021 419.968 150.757C417.352 153.492 413.832 155.003 410.183 154.956L373.49 154.483ZM134.987 151.41C131.338 151.363 127.858 149.763 125.313 146.961C122.768 144.159 121.367 140.385 121.417 136.469C121.468 132.554 122.966 128.817 125.582 126.081C128.198 123.346 131.718 121.836 135.367 121.883L172.06 122.355C175.709 122.402 179.189 124.003 181.734 126.805C184.279 129.607 185.68 133.381 185.63 137.296C185.579 141.212 184.081 144.949 181.465 147.684C178.849 150.42 175.329 151.93 171.68 151.883L134.987 151.41Z" fill="#008080"/>
<path d="M164.549 144.192L170.336 125.168L237.992 140.649L232.206 159.672L164.549 144.192ZM307.489 141.544L312.783 160.71L380.816 146.978L375.522 127.812L307.489 141.544V141.544Z" fill="#45AAA9"/>
<path fill-rule="evenodd" clip-rule="evenodd" d="M353.432 287.122C353.582 275.489 351.595 263.942 347.584 253.141C343.574 242.34 337.618 232.497 330.058 224.172C322.497 215.848 313.48 209.205 303.521 204.625C293.562 200.044 282.856 197.614 272.014 197.475C261.172 197.335 250.407 199.488 240.333 203.811C230.26 208.133 221.074 214.541 213.302 222.668C205.53 230.795 199.323 240.482 195.035 251.176C190.748 261.87 188.464 273.362 188.314 284.994L187.68 334.207C187.546 344.649 191.283 354.713 198.069 362.185C204.855 369.657 214.134 373.925 223.866 374.051L315.598 375.232C325.329 375.358 334.716 371.33 341.692 364.035C348.668 356.74 352.663 346.776 352.798 336.335L353.432 287.122ZM206.661 285.231C206.777 276.183 208.553 267.245 211.888 258.928C215.223 250.61 220.05 243.076 226.096 236.755C232.141 230.434 239.285 225.45 247.12 222.088C254.955 218.726 263.328 217.051 271.761 217.16C280.193 217.269 288.52 219.158 296.266 222.721C304.012 226.284 311.025 231.45 316.906 237.925C322.786 244.399 327.418 252.055 330.537 260.456C333.656 268.857 335.202 277.837 335.085 286.885L334.451 336.098C334.384 341.319 332.387 346.301 328.899 349.949C325.41 353.596 320.717 355.61 315.851 355.547L224.119 354.365C219.254 354.303 214.614 352.169 211.221 348.433C207.828 344.697 205.959 339.665 206.027 334.444L206.661 285.231Z" fill="#45AAA9"/>
</svg>
