<svg width="147" height="144" viewBox="0 0 147 144" fill="none" xmlns="http://www.w3.org/2000/svg">
<path d="M27.2869 12.15C28.1495 11.1621 29.2203 10.369 30.4256 9.82522C31.631 9.28144 32.9423 8.99991 34.2694 9H112.731C114.058 8.99991 115.369 9.28144 116.574 9.82522C117.78 10.369 118.851 11.1621 119.713 12.15L143.683 39.546C145.823 41.9925 147 45.1081 147 48.33V50.625C147.001 55.0798 145.58 59.4234 142.937 63.0488C140.295 66.6742 136.562 69.4001 132.26 70.8457C127.959 72.2913 123.304 72.3842 118.946 71.1114C114.588 69.8387 110.744 67.2639 107.953 63.747C105.915 66.3189 103.303 68.3998 100.317 69.8303C97.3309 71.2608 94.0504 72.003 90.7266 72C87.4026 72.0036 84.1219 71.2618 81.1359 69.8312C78.1499 68.4007 75.5379 66.3194 73.5 63.747C71.4621 66.3194 68.8501 68.4007 65.8641 69.8312C62.8781 71.2618 59.5974 72.0036 56.2734 72C52.9495 72.0036 49.6688 71.2618 46.6828 69.8312C43.6968 68.4007 41.0847 66.3194 39.0469 63.747C36.2556 67.2639 32.4124 69.8387 28.0544 71.1114C23.6963 72.3842 19.0412 72.2913 14.7397 70.8457C10.4382 69.4001 6.70525 66.6742 4.06255 63.0488C1.41985 59.4234 -0.000501624 55.0798 1.32894e-07 50.625V48.33C0.000115832 45.1081 1.17652 41.9925 3.31669 39.546L27.2961 12.141L27.2869 12.15ZM43.6406 50.625C43.6406 53.9071 44.9716 57.0547 47.3407 59.3754C49.7098 61.6962 52.923 63 56.2734 63C59.6239 63 62.8371 61.6962 65.2062 59.3754C67.5753 57.0547 68.9062 53.9071 68.9062 50.625C68.9062 49.4315 69.3902 48.2869 70.2517 47.443C71.1132 46.5991 72.2817 46.125 73.5 46.125C74.7183 46.125 75.8868 46.5991 76.7483 47.443C77.6098 48.2869 78.0938 49.4315 78.0938 50.625C78.0938 53.9071 79.4247 57.0547 81.7938 59.3754C84.1629 61.6962 87.3761 63 90.7266 63C94.077 63 97.2902 61.6962 99.6593 59.3754C102.028 57.0547 103.359 53.9071 103.359 50.625C103.359 49.4315 103.843 48.2869 104.705 47.443C105.566 46.5991 106.735 46.125 107.953 46.125C109.171 46.125 110.34 46.5991 111.201 47.443C112.063 48.2869 112.547 49.4315 112.547 50.625C112.547 53.9071 113.878 57.0547 116.247 59.3754C118.616 61.6962 121.829 63 125.18 63C128.53 63 131.743 61.6962 134.112 59.3754C136.482 57.0547 137.812 53.9071 137.812 50.625V48.33C137.813 47.2574 137.422 46.2201 136.71 45.405L112.731 18H34.2694L10.29 45.405C9.5784 46.2201 9.18742 47.2574 9.1875 48.33V50.625C9.1875 53.9071 10.5185 57.0547 12.8876 59.3754C15.2567 61.6962 18.4699 63 21.8203 63C25.1707 63 28.384 61.6962 30.7531 59.3754C33.1222 57.0547 34.4531 53.9071 34.4531 50.625C34.4531 49.4315 34.9371 48.2869 35.7986 47.443C36.6601 46.5991 37.8285 46.125 39.0469 46.125C40.2652 46.125 41.4337 46.5991 42.2951 47.443C43.1566 48.2869 43.6406 49.4315 43.6406 50.625ZM13.7812 76.5C14.9996 76.5 16.168 76.9741 17.0295 77.818C17.891 78.6619 18.375 79.8065 18.375 81V135H27.5625V90C27.5625 87.6131 28.5305 85.3239 30.2535 83.636C31.9764 81.9482 34.3133 81 36.75 81H64.3125C66.7492 81 69.0861 81.9482 70.809 83.636C72.532 85.3239 73.5 87.6131 73.5 90V135H128.625V81C128.625 79.8065 129.109 78.6619 129.97 77.818C130.832 76.9741 132 76.5 133.219 76.5C134.437 76.5 135.606 76.9741 136.467 77.818C137.329 78.6619 137.812 79.8065 137.812 81V135H142.406C143.625 135 144.793 135.474 145.655 136.318C146.516 137.162 147 138.307 147 139.5C147 140.693 146.516 141.838 145.655 142.682C144.793 143.526 143.625 144 142.406 144H4.59375C3.37541 144 2.20697 143.526 1.34548 142.682C0.483983 141.838 1.32894e-07 140.693 1.32894e-07 139.5C1.32894e-07 138.307 0.483983 137.162 1.34548 136.318C2.20697 135.474 3.37541 135 4.59375 135H9.1875V81C9.1875 79.8065 9.67148 78.6619 10.533 77.818C11.3945 76.9741 12.5629 76.5 13.7812 76.5ZM36.75 135H64.3125V90H36.75V135ZM82.6875 90C82.6875 87.6131 83.6555 85.3239 85.3785 83.636C87.1014 81.9482 89.4383 81 91.875 81H110.25C112.687 81 115.024 81.9482 116.747 83.636C118.47 85.3239 119.438 87.6131 119.438 90V117C119.438 119.387 118.47 121.676 116.747 123.364C115.024 125.052 112.687 126 110.25 126H91.875C89.4383 126 87.1014 125.052 85.3785 123.364C83.6555 121.676 82.6875 119.387 82.6875 117V90ZM110.25 90H91.875V117H110.25V90Z" fill="#008080"/>
</svg>
