<svg width="100" height="100" viewBox="0 0 100 100" fill="none" xmlns="http://www.w3.org/2000/svg">
<path d="M54.167 37.5C54.4087 37.4791 54.7212 37.5 54.967 37.5H82.5337C83.6924 37.4998 84.8385 37.7412 85.8987 38.2089C86.9589 38.6766 87.9099 39.3602 88.691 40.2162C89.4721 41.0722 90.066 42.0816 90.435 43.1801C90.8039 44.2786 90.9397 45.4419 90.8337 46.5958L88.5253 71.7667M83.167 83.0916C80.092 85.9298 76.0599 87.504 71.8753 87.5H65.6253C61.4686 87.4997 57.4619 85.946 54.3916 83.1439C51.3212 80.3419 49.4088 76.4936 49.0295 72.3541L46.667 46.5958M75.0003 54.1666H75.042" stroke="#046B5F" stroke-width="2" stroke-linecap="round" stroke-linejoin="round"/>
<path d="M62.5002 68.7501C65.2377 70.5751 67.971 71.2001 70.7085 70.6293M35.9668 66.5918C35.4378 66.6418 34.9066 66.6668 34.3752 66.6668H28.1252C23.9684 66.6664 19.9618 65.1128 16.8914 62.3107C13.8211 59.5086 11.9087 55.6603 11.5294 51.5209L9.16685 25.7626C9.06075 24.6088 9.19641 23.4456 9.56517 22.3472C9.93393 21.2488 10.5277 20.2394 11.3085 19.3834C12.6922 17.8399 14.6039 16.8707 16.6669 16.6667M33.3335 16.6667H45.0335C47.2437 16.6667 49.3633 17.5447 50.9261 19.1075C52.4889 20.6703 53.3668 22.7899 53.3668 25.0001M25.0002 33.3334H25.0419" stroke="#046B5F" stroke-width="2" stroke-linecap="round" stroke-linejoin="round"/>
<path d="M25 50C28.1833 47.875 31.3667 47.375 34.5458 48.5M12.5 12.5L87.5 87.5" stroke="#046B5F" stroke-width="2" stroke-linecap="round" stroke-linejoin="round"/>
</svg>
