<svg width="133" height="133" viewBox="0 0 133 133" fill="none" xmlns="http://www.w3.org/2000/svg">
<path d="M29.3599 79.329C29.552 69.7335 32.0718 60.3282 36.7026 51.9218C37.5615 65.4157 43.3193 69.0215 46.4781 69.0215C48.8388 69.0215 51.0093 67.226 51.0093 63.3025C51.1737 58.2374 51.9458 50.7839 58.7196 38.2449C59.2957 38.5822 59.9492 38.7649 60.6167 38.7751C63.2712 38.7751 67.5438 35.9026 64.0378 14.3899C64.0378 14.3899 90.1002 31.9551 89.1193 61.0396C89.0909 61.5478 89.1715 62.0562 89.3557 62.5307C89.54 63.0051 89.8235 63.4347 90.1874 63.7906C90.5513 64.1464 90.9871 64.4203 91.4656 64.5939C91.9441 64.7675 92.4541 64.8367 92.9616 64.7969C94.4595 64.6952 95.9135 64.2476 97.2093 63.4893C98.5052 62.7309 99.6075 61.6825 100.43 60.4264C103.173 65.7838 104.507 71.7508 104.309 77.7662C104.309 100.035 90.4881 117.458 66.8917 117.458C45.874 117.458 29.3599 98.6749 29.3599 79.329Z" fill="#45AAA9"/>
<path d="M69.2189 48.486C68.5115 51.2088 66.1525 55.7474 59.3067 63.5538C59.0703 63.7366 59.0703 63.9177 58.8357 64.0987C58.1264 65.3696 55.0193 67.7026 55.0193 72.8527C55.0996 74.3078 55.517 75.7243 56.2385 76.9905C54.7584 78.5551 52.7642 79.5342 50.6211 79.7484C49.5741 79.5773 48.597 79.1134 47.8026 78.4102C47.0083 77.7071 46.4292 76.7935 46.1324 75.775C45.1386 76.7319 44.348 77.8796 43.8082 79.1492C43.2683 80.4188 42.9901 81.7842 42.9902 83.1639C42.9902 91.2695 46.7974 99.6836 57.6553 106.219C57.6553 106.219 60.7217 108.218 60.96 109.851C60.96 109.851 60.96 110.032 61.1946 110.032H73.704C74.1769 110.032 74.1769 110.032 74.1769 109.851C74.1769 109.489 75.119 107.49 81.7283 102.951C85.4055 100.533 88.4102 97.2227 90.462 93.3291C90.5561 93.0925 90.5922 92.8368 90.567 92.5833C90.5419 92.3299 90.4563 92.0862 90.3176 91.8727C90.1788 91.6592 89.9908 91.4821 89.7694 91.3562C89.548 91.2304 89.2996 91.1594 89.0452 91.1494C88.5139 90.9855 88.026 90.7046 87.6175 90.3274C87.209 89.9502 86.8901 89.4863 86.6844 88.9697C86.6844 88.9697 86.2134 87.5196 88.1012 84.25C88.8424 82.9244 89.1711 81.4078 89.0452 79.8943C88.9415 79.5987 88.7766 79.3283 88.5614 79.1008C88.3461 78.8732 88.0853 78.6936 87.796 78.5737C87.5066 78.4538 87.1952 78.3962 86.8821 78.4048C86.569 78.4133 86.2612 78.4878 85.9788 78.6234C84.8998 79.1715 83.6474 79.2691 82.4966 78.8948C81.3457 78.5204 80.3904 77.7046 79.8405 76.6266C79.8405 76.6266 78.1891 73.7209 79.604 66.6405C80.548 61.193 77.2451 52.2968 72.9965 47.7582C71.8161 46.6683 69.4554 47.0341 69.2189 48.486Z" fill="#008080"/>
<path d="M85.7903 111.304V82.968L65.7424 69.5203L46.1064 82.968V111.304C51.9376 115.337 58.8589 117.497 65.9484 117.497C73.0379 117.497 79.9591 115.337 85.7903 111.304Z" fill="#3F3F3F"/>
<path d="M58.1489 93.5876H73.7506V116.791H58.1489V93.5876Z" fill="#C4C4C4"/>
<path d="M42.9111 108.43C45.9423 111.364 49.5244 113.668 53.4506 115.211C57.3769 116.753 61.5697 117.503 65.7871 117.417C74.12 117.417 83.8807 114.757 89.5978 109.04M64.1523 14.3474C64.1523 14.3474 90.2148 31.9145 89.2339 60.999C89.2339 63.1233 90.1908 64.7563 92.4998 64.7563C94.0721 64.725 95.6136 64.3152 96.9938 63.5614C98.3739 62.8077 99.552 61.7323 100.428 60.4264C103.227 66.0675 104.677 72.2818 104.664 78.579C104.883 86.9449 102.154 95.1216 96.9535 101.679M85.7907 110.695V89.3668M46.1068 89.3668V110.695" stroke="black" stroke-width="2" stroke-linecap="round" stroke-linejoin="round"/>
<path d="M40.0957 80.3561L65.7425 62.512L91.8013 80.3561M58.1486 115.572V93.5878H73.1407" stroke="black" stroke-width="2" stroke-linecap="round" stroke-linejoin="round"/>
<path d="M36.6121 101.043C31.9376 94.7126 29.3978 87.0595 29.3599 79.1904C29.541 69.4614 32.0082 59.9114 36.5622 51.3121C37.4211 64.8061 43.1771 68.4119 46.3377 68.4119C48.6984 68.4119 50.8689 66.0068 50.8689 62.0833C51.0315 57.0182 51.8036 50.7838 58.5792 38.2449" stroke="black" stroke-width="2" stroke-linecap="round" stroke-linejoin="round"/>
</svg>
