<svg width="166" height="166" viewBox="0 0 166 166" fill="none" xmlns="http://www.w3.org/2000/svg">
<path d="M94.6453 71.7559H70.875V103.213L94.6453 110.667V71.7559Z" fill="#C4C4C4"/>
<path d="M22.9336 138.448C35.1669 138.448 34.8164 145.787 47.0497 145.787C59.283 145.787 59.283 138.446 71.1681 138.446C83.0533 138.446 83.051 145.787 94.9361 145.787C106.821 145.787 106.819 138.446 118.704 138.446C130.589 138.446 130.587 145.787 142.472 145.787V131.124C130.587 131.124 130.587 123.785 118.702 123.785C106.817 123.785 106.819 131.126 94.9361 131.126C83.0533 131.126 83.051 123.785 71.1681 123.785C59.2853 123.785 59.2853 131.126 47.052 131.126C34.8187 131.126 35.1669 123.785 22.9336 123.785V138.448Z" fill="#008080"/>
<path d="M22.9336 120.906C35.1669 120.906 34.8164 128.247 47.0497 128.247C59.283 128.247 59.283 120.906 71.1681 120.906C83.0533 120.906 83.051 128.247 94.9361 128.247C106.821 128.247 106.819 120.906 118.704 120.906C130.589 120.906 130.587 128.247 142.472 128.247V113.583C130.587 113.583 130.587 106.245 118.702 106.245C106.817 106.245 106.819 113.586 94.9361 113.586C83.0533 113.586 83.051 106.245 71.1681 106.245C59.2853 106.245 59.283 113.586 47.052 113.586C34.821 113.586 35.1669 106.245 22.9359 106.245L22.9336 120.906Z" fill="#45AAA9" fill-opacity="0.55"/>
<path d="M22.9336 104.711C35.1669 104.711 34.8164 112.05 47.0497 112.05C59.283 112.05 59.283 104.711 71.1681 104.711C83.0533 104.711 83.051 112.05 94.9361 112.05C106.821 112.05 106.819 104.709 118.704 104.709C130.589 104.709 130.587 112.05 142.472 112.05V97.3889C130.587 97.3889 130.587 90.0503 118.702 90.0503C106.817 90.0503 106.819 97.3889 94.9361 97.3889C83.0533 97.3889 83.051 90.0503 71.1681 90.0503C59.2853 90.0503 59.283 97.3889 47.052 97.3889C34.821 97.3889 35.1669 90.0503 22.9359 90.0503L22.9336 104.711Z" fill="#45AAA9" fill-opacity="0.4"/>
<path d="M38.2725 58.1023L82.2763 20.5586L127.248 58.1023H38.2725ZM66.6815 33.8317V23.0763H53.0073V45.5185L66.6815 33.8317Z" fill="#046B5F"/>
<path d="M127.232 116.281V58.1023M38.2886 58.1023V117.459M70.8753 95.0119V71.7558H94.6456V101.899M142.472 130.033C130.587 130.033 130.587 122.695 118.702 122.695C106.817 122.695 106.819 130.036 94.9361 130.036C83.0533 130.036 83.051 122.695 71.1681 122.695C59.2853 122.695 59.283 130.036 47.052 130.036C34.821 130.036 35.1669 122.695 22.9359 122.695M142.472 112.825C130.587 112.825 130.587 105.484 118.702 105.484C106.817 105.484 106.819 112.825 94.9361 112.825C83.0533 112.825 83.051 105.484 71.1681 105.484C59.2853 105.484 59.2853 112.825 47.052 112.825C34.8187 112.825 35.1669 105.484 22.9336 105.484M142.472 147.247C130.587 147.247 130.587 139.908 118.702 139.908C106.817 139.908 106.819 147.247 94.9361 147.247C83.0533 147.247 83.051 139.908 71.1681 139.908C59.2853 139.908 59.283 147.247 47.052 147.247C34.821 147.247 35.1669 139.908 22.9359 139.908M38.2725 58.1023L82.2763 20.5586L127.248 58.1023H38.2725ZM66.6815 33.8317V23.0763H53.0073V45.5185L66.6815 33.8317V33.8317Z" stroke="black" stroke-width="2" stroke-linecap="round" stroke-linejoin="round"/>
</svg>
