<svg width="577" height="572" viewBox="0 0 577 572" fill="none" xmlns="http://www.w3.org/2000/svg">
<ellipse cx="288.5" cy="286" rx="288.5" ry="286" fill="#45AAA9" fill-opacity="0.25"/>
<path d="M177.082 132.447C179.171 130.053 181.765 128.13 184.684 126.813C187.603 125.495 190.779 124.812 193.992 124.813H384.007C387.221 124.812 390.397 125.495 393.316 126.813C396.235 128.13 398.829 130.053 400.917 132.447L458.968 198.844C464.151 204.773 467 212.325 467 220.133V225.695C467.001 236.492 463.561 247.019 457.161 255.806C450.761 264.592 441.721 271.199 431.304 274.702C420.887 278.206 409.613 278.431 399.059 275.346C388.505 272.262 379.197 266.022 372.437 257.498C367.501 263.731 361.175 268.774 353.944 272.241C346.713 275.708 338.768 277.507 330.719 277.5C322.669 277.509 314.724 275.711 307.492 272.244C300.261 268.777 293.935 263.732 289 257.498C284.065 263.732 277.739 268.777 270.508 272.244C263.276 275.711 255.331 277.509 247.281 277.5C239.231 277.509 231.286 275.711 224.055 272.244C216.823 268.777 210.498 263.732 205.562 257.498C198.803 266.022 189.495 272.262 178.941 275.346C168.387 278.431 157.113 278.206 146.696 274.702C136.279 271.199 127.239 264.592 120.839 255.806C114.439 247.019 110.999 236.492 111 225.695V220.133C111 212.325 113.849 204.773 119.032 198.844L177.105 132.425L177.082 132.447ZM216.687 225.695C216.687 233.65 219.911 241.278 225.648 246.903C231.386 252.528 239.167 255.688 247.281 255.688C255.395 255.688 263.177 252.528 268.914 246.903C274.652 241.278 277.875 233.65 277.875 225.695C277.875 222.803 279.047 220.029 281.133 217.983C283.22 215.938 286.049 214.789 289 214.789C291.951 214.789 294.78 215.938 296.867 217.983C298.953 220.029 300.125 222.803 300.125 225.695C300.125 233.65 303.348 241.278 309.086 246.903C314.823 252.528 322.605 255.688 330.719 255.688C338.833 255.688 346.614 252.528 352.352 246.903C358.089 241.278 361.312 233.65 361.312 225.695C361.312 222.803 362.485 220.029 364.571 217.983C366.657 215.938 369.487 214.789 372.437 214.789C375.388 214.789 378.218 215.938 380.304 217.983C382.39 220.029 383.562 222.803 383.562 225.695C383.562 233.65 386.786 241.278 392.523 246.903C398.261 252.528 406.042 255.688 414.156 255.688C422.27 255.688 430.052 252.528 435.789 246.903C441.527 241.278 444.75 233.65 444.75 225.695V220.133C444.75 217.534 443.803 215.02 442.08 213.044L384.007 146.625H193.992L135.92 213.044C134.197 215.02 133.25 217.534 133.25 220.133V225.695C133.25 233.65 136.473 241.278 142.211 246.903C147.948 252.528 155.73 255.688 163.844 255.688C171.958 255.688 179.739 252.528 185.477 246.903C191.214 241.278 194.437 233.65 194.437 225.695C194.437 222.803 195.61 220.029 197.696 217.983C199.782 215.938 202.612 214.789 205.562 214.789C208.513 214.789 211.343 215.938 213.429 217.983C215.515 220.029 216.687 222.803 216.687 225.695ZM144.375 288.406C147.326 288.406 150.155 289.555 152.242 291.601C154.328 293.646 155.5 296.42 155.5 299.313V430.188H177.75V321.125C177.75 315.34 180.094 309.792 184.267 305.701C188.44 301.611 194.099 299.313 200 299.313H266.75C272.651 299.313 278.31 301.611 282.483 305.701C286.656 309.792 289 315.34 289 321.125V430.188H422.5V299.313C422.5 296.42 423.672 293.646 425.758 291.601C427.845 289.555 430.674 288.406 433.625 288.406C436.576 288.406 439.405 289.555 441.492 291.601C443.578 293.646 444.75 296.42 444.75 299.313V430.188H455.875C458.826 430.188 461.655 431.337 463.742 433.382C465.828 435.427 467 438.201 467 441.094C467 443.986 465.828 446.76 463.742 448.806C461.655 450.851 458.826 452 455.875 452H122.125C119.174 452 116.345 450.851 114.258 448.806C112.172 446.76 111 443.986 111 441.094C111 438.201 112.172 435.427 114.258 433.382C116.345 431.337 119.174 430.188 122.125 430.188H133.25V299.313C133.25 296.42 134.422 293.646 136.508 291.601C138.595 289.555 141.424 288.406 144.375 288.406ZM200 430.188H266.75V321.125H200V430.188ZM311.25 321.125C311.25 315.34 313.594 309.792 317.767 305.701C321.94 301.611 327.599 299.313 333.5 299.313H378C383.901 299.313 389.56 301.611 393.733 305.701C397.906 309.792 400.25 315.34 400.25 321.125V386.563C400.25 392.348 397.906 397.896 393.733 401.986C389.56 406.077 383.901 408.375 378 408.375H333.5C327.599 408.375 321.94 406.077 317.767 401.986C313.594 397.896 311.25 392.348 311.25 386.563V321.125ZM378 321.125H333.5V386.563H378V321.125Z" fill="#046B5F"/>
</svg>
