<svg width="577" height="572" viewBox="0 0 577 572" fill="none" xmlns="http://www.w3.org/2000/svg">
<ellipse cx="288.5" cy="286" rx="288.5" ry="286" fill="#45AAA9" fill-opacity="0.25"/>
<path d="M141.451 112.833H336.826V460.167H141.451V112.833ZM336.826 206.903H474.312V460.167H336.826V206.903Z" fill="#008080"/>
<path d="M174.014 315.444H188.486V351.625H174.014V315.444ZM231.903 315.444H246.375V351.625H231.903V315.444ZM289.791 315.444H304.264V351.625H289.791V315.444ZM369.389 243.083H383.861V279.264H369.389V243.083ZM427.278 243.083H441.75V279.264H427.278V243.083ZM369.389 315.444H383.861V351.625H369.389V315.444ZM427.278 315.444H441.75V351.625H427.278V315.444ZM369.389 387.805H383.861V423.986H369.389V387.805ZM427.278 387.805H441.75V423.986H427.278V387.805Z" fill="#45AAA9" stroke="#45AAA9" stroke-width="2" stroke-miterlimit="10" stroke-linecap="round" stroke-linejoin="round"/>
<path d="M192.104 387.806H286.174V460.167H192.104V387.806Z" fill="#45AAA9"/>
<path d="M141.451 112.833H336.826V460.167H141.451V112.833ZM336.826 206.903H474.312V460.167H336.826V206.903Z" stroke="white" stroke-width="2" stroke-miterlimit="10" stroke-linecap="round" stroke-linejoin="round"/>
<path d="M239.139 460.167V387.805M441.75 279.264H427.278V243.083M441.75 351.625H427.278V315.444M441.75 423.986H427.278V387.805M383.861 279.264H369.389V243.083M246.375 351.625H231.903V315.444M304.264 351.625H289.791V315.444M188.486 351.625H174.014V315.444M383.861 351.625H369.389V315.444M383.861 423.986H369.389V387.805M192.104 387.805H286.173V460.167H192.104V387.805Z" stroke="white" stroke-width="2" stroke-miterlimit="10" stroke-linecap="round" stroke-linejoin="round"/>
<path d="M181.25 156.25H297.028V170.722H181.25V156.25ZM181.25 199.667H297.028V214.139H181.25V199.667ZM231.903 214.139H246.375V264.792H231.903V214.139Z" fill="white" stroke="white" stroke-width="2" stroke-miterlimit="10" stroke-linecap="round" stroke-linejoin="round"/>
</svg>
