<svg width="80" height="80" viewBox="0 0 80 80" fill="none" xmlns="http://www.w3.org/2000/svg">
<circle cx="40" cy="40" r="38" fill="white" stroke="#ECECEC" stroke-width="4"/>
<path d="M44.9505 36.4356V38.099C44.602 38.0515 44.206 38.0277 43.7624 38.0198V36.4356C43.7624 33.9406 43.0574 32.2772 39.604 32.2772C36.1505 32.2772 35.4456 33.9406 35.4456 36.4356V38.0198C35.002 38.0277 34.606 38.0515 34.2574 38.099V36.4356C34.2574 34.1386 34.8119 31.0891 39.604 31.0891C44.3961 31.0891 44.9505 34.1386 44.9505 36.4356Z" fill="#BF125D"/>
<path opacity="0.4" d="M47.5247 41.9804V43.5646C47.5247 46.7329 46.7326 47.525 43.5643 47.525H35.6435C32.4752 47.525 31.6831 46.7329 31.6831 43.5646V41.9804C31.6831 39.3349 32.2376 38.3448 34.2574 38.0992C34.6059 38.0517 35.0019 38.0279 35.4455 38.02H43.7623C44.2059 38.0279 44.6019 38.0517 44.9504 38.0992C46.9702 38.3448 47.5247 39.3349 47.5247 41.9804Z" fill="#BF125D"/>
<path d="M36.4356 43.5645C36.3327 43.5645 36.2297 43.5407 36.1346 43.5011C36.0317 43.4615 35.9525 43.4061 35.8733 43.3348C35.7307 43.1843 35.6436 42.9783 35.6436 42.7724C35.6436 42.6694 35.6673 42.5665 35.7069 42.4714C35.7465 42.3764 35.802 42.2892 35.8733 42.21C35.9525 42.1387 36.0317 42.0833 36.1346 42.0437C36.4277 41.917 36.7762 41.9882 36.998 42.21C37.0693 42.2892 37.1248 42.3764 37.1644 42.4714C37.204 42.5665 37.2277 42.6694 37.2277 42.7724C37.2277 42.9783 37.1406 43.1843 36.998 43.3348C36.8475 43.4774 36.6416 43.5645 36.4356 43.5645Z" fill="#BF125D"/>
<path d="M39.604 43.5645C39.3901 43.5645 39.1921 43.4774 39.0416 43.3348C38.9703 43.2556 38.9148 43.1685 38.8752 43.0734C38.8356 42.9784 38.8119 42.8754 38.8119 42.7724C38.8119 42.5586 38.899 42.3605 39.0416 42.21C39.3347 41.917 39.8653 41.917 40.1663 42.21C40.3089 42.3605 40.396 42.5586 40.396 42.7724C40.396 42.8754 40.3723 42.9784 40.3327 43.0734C40.2931 43.1685 40.2376 43.2556 40.1663 43.3348C40.0158 43.4774 39.8099 43.5645 39.604 43.5645Z" fill="#BF125D"/>
<path d="M42.7723 43.5645C42.5664 43.5645 42.3604 43.4774 42.2099 43.3348C42.0674 43.1843 41.9802 42.9863 41.9802 42.7724C41.9802 42.5586 42.0674 42.3605 42.2099 42.21C42.5109 41.917 43.0416 41.917 43.3347 42.21C43.3664 42.2496 43.398 42.2892 43.4297 42.3368C43.4614 42.3764 43.4852 42.4239 43.501 42.4714C43.5248 42.5189 43.5406 42.5665 43.5485 42.614C43.5565 42.6695 43.5644 42.7249 43.5644 42.7724C43.5644 42.9784 43.4772 43.1843 43.3347 43.3348C43.1842 43.4774 42.9782 43.5645 42.7723 43.5645Z" fill="#BF125D"/>
<mask id="path-7-inside-1_801_653" fill="white">
<path d="M21.2022 4.69219C26.8948 1.66144 33.2358 0.0520604 39.6848 0.00124187C46.1338 -0.0495767 52.4994 1.45967 58.2391 4.40034L56.8133 7.18322C51.5223 4.47243 45.6543 3.08116 39.7094 3.12801C33.7646 3.17486 27.9193 4.65843 22.6716 7.45226L21.2022 4.69219Z"/>
</mask>
<path d="M21.2022 4.69219C26.8948 1.66144 33.2358 0.0520604 39.6848 0.00124187C46.1338 -0.0495767 52.4994 1.45967 58.2391 4.40034L56.8133 7.18322C51.5223 4.47243 45.6543 3.08116 39.7094 3.12801C33.7646 3.17486 27.9193 4.65843 22.6716 7.45226L21.2022 4.69219Z" fill="white" stroke="#BF125D" stroke-width="8" mask="url(#path-7-inside-1_801_653)"/>
</svg>
