<svg width="94" height="72" viewBox="0 0 94 72" fill="none" xmlns="http://www.w3.org/2000/svg">
<path d="M7.83333 0.75H86.1667C90.2792 0.75 94 4.47083 94 8.58333V63.4167C94 67.5292 90.2792 71.25 86.1667 71.25H7.83333C3.72083 71.25 0 67.5292 0 63.4167V8.58333C0 4.47083 3.72083 0.75 7.83333 0.75ZM54.8333 12.5V16.4167H86.1667V12.5H54.8333ZM54.8333 20.3333V24.25H86.1667V20.3333H54.8333ZM54.8333 28.1667V32.0833H82.25V28.1667H54.8333ZM31.3333 43.4808C23.5 43.4808 7.83333 47.75 7.83333 55.5833V59.5H54.8333V55.5833C54.8333 47.75 39.1667 43.4808 31.3333 43.4808ZM31.3333 12.5C28.217 12.5 25.2284 13.7379 23.0248 15.9415C20.8213 18.145 19.5833 21.1337 19.5833 24.25C19.5833 27.3663 20.8213 30.355 23.0248 32.5585C25.2284 34.7621 28.217 36 31.3333 36C34.4496 36 37.4383 34.7621 39.6418 32.5585C41.8454 30.355 43.0833 27.3663 43.0833 24.25C43.0833 21.1337 41.8454 18.145 39.6418 15.9415C37.4383 13.7379 34.4496 12.5 31.3333 12.5Z" fill="#008080"/>
</svg>
