<svg width="93" height="100" viewBox="0 0 93 100" fill="none" xmlns="http://www.w3.org/2000/svg">
<path d="M57.7735 74.5791C53.9935 84.1109 44.8872 90.7423 34.2181 90.8118H34.1976C28.9649 90.812 23.8655 89.1618 19.6249 86.0962C15.3843 83.0305 12.2185 78.7056 10.5781 73.7367C8.93762 68.7678 8.90606 63.4081 10.4879 58.4202C12.0697 53.4323 15.1843 49.0704 19.3885 45.955L19.454 45.9059L18.0017 36.9427C7.77852 42.7437 0.991702 53.5518 0.991702 65.9473C0.988659 73.4248 3.50732 80.6848 8.14057 86.5538C12.7738 92.4229 19.2509 96.558 26.5248 98.2907C33.7988 100.023 41.4445 99.2526 48.2262 96.1028C55.0079 92.9529 60.5292 87.6081 63.8976 80.9323L63.9835 80.7441L57.7735 74.5791Z" fill="#046B5F"/>
<path d="M67.469 62.65C67.1736 62.3581 66.8533 62.0926 66.5117 61.8563L66.4872 61.84C65.5913 61.2263 64.4826 60.8582 63.2881 60.8582H37.3886L34.0381 40.2113H61.6845C62.2185 40.2113 62.7472 40.1062 63.2406 39.9018C63.7339 39.6974 64.1822 39.3979 64.5598 39.0203C64.9374 38.6427 65.2369 38.1945 65.4413 37.7011C65.6456 37.2077 65.7508 36.679 65.7508 36.145C65.7508 35.611 65.6456 35.0822 65.4413 34.5888C65.2369 34.0955 64.9374 33.6472 64.5598 33.2696C64.1822 32.892 63.7339 32.5925 63.2406 32.3881C62.7472 32.1838 62.2185 32.0786 61.6845 32.0786H32.7126L32.2586 29.3295C32.1323 28.582 31.8601 27.8666 31.4573 27.2243C31.0546 26.5819 30.5293 26.0252 29.9115 25.5859C29.2936 25.1466 28.5953 24.8332 27.8563 24.6638C27.1173 24.4944 26.3522 24.4721 25.6047 24.5984C24.8571 24.7246 24.1418 24.9969 23.4994 25.3996C22.8571 25.8023 22.3004 26.3276 21.8611 26.9455C20.9738 28.1933 20.6186 29.7425 20.8736 31.2522L20.8695 31.2195L26.7604 67.3218C27.026 68.7113 27.7563 69.9691 28.8312 70.8887C29.9062 71.8083 31.262 72.335 32.6758 72.3822H60.9235L83.0513 94.5141C83.5814 95.0654 84.2161 95.5055 84.9184 95.8086C85.6206 96.1117 86.3762 96.2717 87.1411 96.2792C87.9059 96.2867 88.6645 96.1416 89.3726 95.8524C90.0806 95.5632 90.7239 95.1356 91.2647 94.5948C91.8056 94.054 92.2331 93.4107 92.5223 92.7026C92.8116 91.9946 92.9567 91.2359 92.9491 90.4711C92.9416 89.7063 92.7816 88.9507 92.4786 88.2484C92.1755 87.5462 91.7354 86.9114 91.184 86.3813L67.469 62.65ZM35.1386 12.0086C35.1386 14.9288 33.9785 17.7294 31.9136 19.7943C29.8487 21.8592 27.0481 23.0193 24.1279 23.0193C21.2077 23.0193 18.407 21.8592 16.3421 19.7943C14.2772 17.7294 13.1172 14.9288 13.1172 12.0086C13.1172 9.08839 14.2772 6.28778 16.3421 4.22288C18.407 2.15798 21.2077 0.997925 24.1279 0.997925C27.0481 0.997925 29.8487 2.15798 31.9136 4.22288C33.9785 6.28778 35.1386 9.08839 35.1386 12.0086Z" fill="#046B5F"/>
</svg>
