<svg width="84" height="84" viewBox="0 0 84 84" fill="none" xmlns="http://www.w3.org/2000/svg">
<path d="M39.4347 0.691406L36.7593 6.7998C35.3744 6.88431 33.9965 7.0587 32.6342 7.32187L28.5417 2.03719L24.1306 3.53695L24.1086 10.2606C22.2401 11.2211 20.4494 12.3823 18.7579 13.7375L12.5238 10.9307L9.33211 14.3255L12.5236 20.3789C11.5054 21.8305 10.6106 23.3648 9.84855 24.9657L3.00398 25.1524L1.61426 29.5962L7.14047 33.6669C6.87592 35.3157 6.74672 36.9818 6.73934 38.6493L0.603516 41.7583L1.24617 46.3726L7.98088 47.6909C8.38348 49.1005 8.88271 50.4808 9.47502 51.8218L5.03672 57.3316L7.514 61.2755L14.4134 59.6606C14.85 60.1743 15.3024 60.6743 15.7701 61.16C16.7469 62.1703 17.7873 63.117 18.8849 63.9944L17.5446 70.9049L21.5767 73.234L26.8445 68.6472C28.3518 69.2531 29.9037 69.7416 31.4863 70.1083L33.2058 76.8594L37.8473 77.2385L40.6379 70.8717C42.5662 70.7557 44.4882 70.4674 46.3782 70.0037L50.8114 75.14L55.1344 73.4096L55.0078 70.8058L44.9169 63.154C41.9793 63.8967 38.933 64.0955 35.941 63.758C30.3592 63.1287 24.9951 60.608 20.7855 56.2546C11.1636 46.3029 11.4387 30.4728 21.3898 20.8512C26.2097 16.1907 32.4096 13.8265 38.6164 13.7595C45.224 13.6881 51.8376 16.2197 56.7988 21.351C64.8734 29.7027 65.9739 42.2663 60.2375 51.7778L65.8572 56.0405C66.5559 54.9448 67.1869 53.8074 67.7469 52.6348L74.5417 52.4479L75.9314 48.0042L70.444 43.9612C70.7087 42.2988 70.8427 40.6182 70.8448 38.9349L76.9423 35.8368L76.2998 31.2225L69.5709 29.9041C69.0048 27.955 68.2543 26.0641 67.3297 24.2572L71.3393 18.7035L68.6586 14.8966L62.0563 16.8137C61.9733 16.7258 61.8928 16.6367 61.8088 16.55C60.7696 15.4748 59.6573 14.4725 58.48 13.5505L59.7435 7.02463L55.7109 4.6957L50.7012 9.05754C49.0794 8.40486 47.4137 7.89686 45.7243 7.51945L44.082 1.07039L39.4347 0.691406ZM29.2119 27.6738C27.3936 27.6946 25.5913 28.1411 23.9385 28.9535L31.8873 34.9853C34.2913 36.8092 34.9731 40.2754 33.1283 42.7086C31.283 45.1431 27.7396 45.5091 25.3008 43.6592L17.3576 37.6331C16.5442 41.9912 18.0844 46.609 21.8565 49.4709C25.2394 52.0368 29.5811 52.5172 33.321 51.1738L34.1612 50.8715L34.8696 51.4099L58.6335 69.4387L59.3419 69.977L59.2814 70.867C58.9937 74.8308 60.6156 78.8843 64.0001 81.452C67.7723 84.3137 72.6388 84.551 76.6177 82.5946L68.6748 76.5688C66.236 74.7185 65.637 71.2064 67.483 68.7739C69.3287 66.3411 72.8508 66.066 75.2555 67.8894L83.1987 73.9157C84.0101 69.5592 82.4763 64.9391 78.7052 62.0779C75.3104 59.5013 71.003 58.9908 67.2851 60.3143L66.4501 60.611L65.7417 60.0726L41.9779 42.0441L41.2695 41.5057L41.3299 40.6215C41.6024 36.6863 39.95 32.6773 36.5562 30.1019C34.3512 28.4292 31.7711 27.6448 29.2121 27.674L29.2119 27.6738ZM36.8695 43.5381L65.6756 65.3954L63.6925 68.0156L34.8809 46.1528L36.8695 43.5381Z" fill="#046B5F"/>
</svg>
