<svg width="85" height="85" viewBox="0 0 85 85" fill="none" xmlns="http://www.w3.org/2000/svg">
<path d="M66.4062 42.5H45.1562C43.7477 42.5014 42.3973 43.0616 41.4013 44.0575C40.4053 45.0535 39.8452 46.404 39.8438 47.8125V63.75H10.625V37.1875H5.3125V79.6875H10.625V69.0625H74.375V79.6875H79.6875V55.7812C79.6833 52.2601 78.2827 48.8844 75.7929 46.3946C73.3031 43.9048 69.9274 42.5042 66.4062 42.5ZM74.375 63.75H45.1562V47.8125H66.4062C68.519 47.8146 70.5447 48.6548 72.0387 50.1488C73.5327 51.6428 74.3729 53.6685 74.375 55.7812V63.75Z" fill="#008080"/>
<path d="M25.2344 45.1562C26.0224 45.1562 26.7928 45.3899 27.448 45.8277C28.1032 46.2655 28.6139 46.8878 28.9155 47.6159C29.217 48.3439 29.2959 49.145 29.1422 49.9179C28.9885 50.6908 28.609 51.4008 28.0518 51.958C27.4945 52.5152 26.7846 52.8947 26.0117 53.0484C25.2388 53.2022 24.4377 53.1233 23.7096 52.8217C22.9816 52.5201 22.3593 52.0095 21.9215 51.3542C21.4837 50.699 21.25 49.9287 21.25 49.1406C21.2514 48.0843 21.6716 47.0717 22.4186 46.3248C23.1655 45.5779 24.1781 45.1577 25.2344 45.1562ZM25.2344 39.8438C23.3956 39.8438 21.5982 40.389 20.0693 41.4106C18.5404 42.4321 17.3488 43.8841 16.6452 45.5829C15.9415 47.2816 15.7574 49.1509 16.1161 50.9544C16.4749 52.7578 17.3603 54.4143 18.6605 55.7145C19.9607 57.0147 21.6172 57.9001 23.4206 58.2589C25.2241 58.6176 27.0934 58.4335 28.7921 57.7298C30.4909 57.0262 31.9429 55.8346 32.9644 54.3057C33.986 52.7768 34.5313 50.9794 34.5313 49.1406C34.5313 46.6749 33.5518 44.3102 31.8083 42.5667C30.0648 40.8232 27.7001 39.8438 25.2344 39.8438ZM55.7813 15.9375H45.1563V5.3125H39.8438V15.9375H29.2188V21.25H39.8438V31.875H45.1563V21.25H55.7813V15.9375Z" fill="#008080"/>
</svg>
