<svg width="85" height="61" viewBox="0 0 85 61" fill="none" xmlns="http://www.w3.org/2000/svg">
<path d="M38.9583 18.3333C38.9583 26.1604 32.6188 32.5 24.7917 32.5C16.9646 32.5 10.625 26.1604 10.625 18.3333C10.625 10.5063 16.9646 4.16667 24.7917 4.16667C32.6188 4.16667 38.9583 10.5063 38.9583 18.3333ZM38.9583 42.1333V60.8333H0V53.75C0 45.9229 11.0854 39.5833 24.7917 39.5833C30.1042 39.5833 34.9562 40.5396 38.9583 42.1333ZM85 60.8333H46.0417V0.625H85V60.8333ZM56.6667 30.7292C56.6667 28.3809 57.5995 26.1288 59.26 24.4683C60.9205 22.8078 63.1726 21.875 65.5208 21.875C67.8691 21.875 70.1212 22.8078 71.7817 24.4683C73.4422 26.1288 74.375 28.3809 74.375 30.7292C74.375 33.0774 73.4422 35.3295 71.7817 36.99C70.1212 38.6505 67.8691 39.5833 65.5208 39.5833C63.1726 39.5833 60.9205 38.6505 59.26 36.99C57.5995 35.3295 56.6667 33.0774 56.6667 30.7292ZM77.9167 14.7917C76.038 14.7917 74.2364 14.0454 72.908 12.717C71.5796 11.3886 70.8333 9.58695 70.8333 7.70833H60.2083C60.2083 11.6396 57.0563 14.7917 53.125 14.7917V46.6667C55.0036 46.6667 56.8053 47.4129 58.1337 48.7413C59.4621 50.0697 60.2083 51.8714 60.2083 53.75H70.8333C70.8333 49.8542 74.0208 46.6667 77.9167 46.6667V14.7917Z" fill="#008080"/>
</svg>
