<svg width="308" height="379" viewBox="0 0 308 379" fill="none" xmlns="http://www.w3.org/2000/svg">
<path opacity="0.8" fill-rule="evenodd" clip-rule="evenodd" d="M215.61 128.504C230.143 135.642 242.423 147.159 250.96 161.655C259.496 176.15 263.921 193.002 263.698 210.161L263.064 259.374C262.929 269.816 258.935 279.78 251.958 287.075C244.982 294.37 235.595 298.397 225.864 298.272L215.131 298.134C216.101 301.218 216.608 304.551 216.564 307.996L216.057 347.367C215.956 355.198 212.96 362.671 207.727 368.142C202.495 373.613 195.455 376.634 188.157 376.54L169.81 376.304C162.512 376.21 155.552 373.008 150.462 367.404C145.373 361.8 142.57 354.253 142.671 346.421L143.178 307.051C143.223 303.606 143.816 300.286 144.865 297.228L134.132 297.09C124.4 296.965 115.121 292.697 108.335 285.225C101.549 277.753 97.8117 267.689 97.9462 257.247L98.5802 208.034C98.7965 190.874 103.653 174.141 112.561 159.87C121.468 145.598 134.042 134.402 148.756 127.643C139.707 120.027 133.117 109.555 129.911 97.6991C126.706 85.8436 127.047 73.2015 130.886 61.551C134.725 49.9005 141.87 39.828 151.315 32.7501C160.76 25.6723 172.029 21.9454 183.539 22.0937C195.048 22.242 206.218 26.2579 215.478 33.5767C224.737 40.8955 231.62 51.1488 235.158 62.8943C238.696 74.6398 238.711 87.2865 235.201 99.0555C231.692 110.824 224.833 121.123 215.592 128.504L215.61 128.504Z" fill="white"/>
<path d="M203.945 219.236C203.878 224.457 201.881 229.439 198.392 233.086C194.904 236.733 190.211 238.747 185.345 238.685C180.48 238.622 175.84 236.488 172.447 232.752C169.054 229.016 167.185 223.984 167.253 218.763C167.32 213.542 169.317 208.56 172.805 204.913C176.294 201.265 180.987 199.252 185.853 199.314C190.718 199.377 195.358 201.511 198.751 205.247C202.144 208.983 204.013 214.015 203.945 219.236ZM139.733 218.409C139.666 223.629 137.668 228.612 134.18 232.259C130.692 235.906 125.999 237.92 121.133 237.857C116.267 237.795 111.627 235.661 108.234 231.925C104.841 228.189 102.973 223.157 103.04 217.936C103.107 212.715 105.105 207.733 108.593 204.086C112.081 200.438 116.774 198.424 121.64 198.487C126.506 198.55 131.146 200.684 134.539 204.42C137.932 208.156 139.8 213.188 139.733 218.409Z" fill="#45AAA9"/>
<path fill-rule="evenodd" clip-rule="evenodd" d="M154.761 120.16C161.988 120.253 169.165 118.818 175.881 115.936C182.597 113.054 188.721 108.782 193.902 103.364C199.084 97.9462 203.222 91.4882 206.08 84.3588C208.938 77.2295 210.461 69.5685 210.561 61.8132C210.66 54.0579 209.336 46.3603 206.662 39.1597C203.988 31.9591 200.018 25.3966 194.978 19.847C189.938 14.2973 183.926 9.86915 177.287 6.8153C170.647 3.76146 163.51 2.14174 156.282 2.04863C141.685 1.86058 127.605 7.90215 117.141 18.8442C106.676 29.7863 100.684 44.7327 100.482 60.3952C100.28 76.0577 105.886 91.1534 116.065 102.361C126.244 113.569 140.163 119.972 154.761 120.16ZM156.029 21.7338C165.76 21.8592 175.04 26.1274 181.826 33.5994C188.612 41.0714 192.349 51.1352 192.214 61.5769C192.08 72.0186 188.085 81.9828 181.108 89.2775C174.132 96.5722 164.746 100.6 155.014 100.475C145.283 100.349 136.003 96.081 129.217 88.609C122.431 81.137 118.694 71.0732 118.829 60.6315C118.963 50.1898 122.958 40.2256 129.934 32.9309C136.911 25.6362 146.297 21.6085 156.029 21.7338ZM162.159 258.074L143.812 257.838C136.514 257.744 129.474 260.765 124.242 266.236C119.009 271.707 116.013 279.18 115.912 287.011L115.405 326.382C115.304 334.213 118.107 341.761 123.196 347.365C128.286 352.969 135.246 356.17 142.544 356.264L160.891 356.5C168.189 356.594 175.229 353.573 180.461 348.102C185.694 342.631 188.69 335.158 188.791 327.327L189.298 287.957C189.399 280.125 186.596 272.577 181.507 266.973C176.417 261.369 169.457 258.168 162.159 258.074ZM134.259 287.248C134.292 284.637 135.291 282.146 137.035 280.322C138.779 278.499 141.126 277.492 143.559 277.523L161.905 277.759C164.338 277.791 166.658 278.858 168.354 280.726C170.051 282.594 170.985 285.11 170.951 287.72L170.444 327.091C170.411 329.701 169.412 332.192 167.668 334.016C165.924 335.839 163.577 336.846 161.144 336.815L142.798 336.579C140.365 336.547 138.045 335.48 136.349 333.612C134.652 331.744 133.718 329.228 133.751 326.618L134.259 287.248Z" fill="#008080"/>
<path d="M256.49 57.4828C252.841 57.4358 249.361 55.8353 246.816 53.0333C244.271 50.2312 242.87 46.4573 242.92 42.5417C242.971 38.6261 244.469 34.8895 247.085 32.154C249.701 29.4184 253.221 27.908 256.87 27.9551L293.563 28.4277C297.213 28.4748 300.692 30.0753 303.237 32.8773C305.782 35.6793 307.183 39.4533 307.133 43.3689C307.082 47.2845 305.584 51.0211 302.968 53.7566C300.352 56.4922 296.832 58.0025 293.183 57.9555L256.49 57.4828ZM17.9868 54.4104C14.3375 54.3634 10.8577 52.7628 8.3129 49.9608C5.7681 47.1588 4.36679 43.3848 4.41723 39.4692C4.46767 35.5536 5.96574 31.817 8.58187 29.0815C11.198 26.346 14.7179 24.8356 18.3672 24.8826L55.06 25.3553C58.7094 25.4023 62.1892 27.0028 64.734 29.8049C67.2788 32.6069 68.6801 36.3808 68.6296 40.2964C68.5792 44.2121 67.0811 47.9486 64.465 50.6842C61.8489 53.4197 58.329 54.9301 54.6796 54.8831L17.9868 54.4104Z" fill="#008080"/>
<path d="M47.5489 47.1916L53.3355 28.1683L120.992 43.6487L115.206 62.672L47.5489 47.1916ZM190.489 44.544L195.783 63.71L263.816 49.9776L258.522 30.8116L190.489 44.544Z" fill="#45AAA9"/>
<path fill-rule="evenodd" clip-rule="evenodd" d="M236.432 190.122C236.582 178.489 234.595 166.942 230.584 156.141C226.574 145.34 220.618 135.497 213.058 127.172C205.497 118.848 196.48 112.205 186.521 107.625C176.562 103.044 165.856 100.614 155.014 100.475C144.172 100.335 133.407 102.488 123.333 106.811C113.26 111.133 104.074 117.541 96.302 125.668C88.5297 133.795 82.3227 143.482 78.0353 154.176C73.7479 164.87 71.464 176.362 71.3142 187.994L70.6802 237.207C70.5457 247.649 74.2825 257.713 81.0686 265.185C87.8548 272.657 97.1343 276.925 106.866 277.051L198.598 278.232C208.329 278.358 217.716 274.33 224.692 267.035C231.668 259.74 235.663 249.776 235.798 239.335L236.432 190.122ZM89.6606 188.231C89.7771 179.183 91.5534 170.245 94.8881 161.928C98.2228 153.61 103.05 146.076 109.096 139.755C115.141 133.434 122.285 128.45 130.12 125.088C137.955 121.726 146.328 120.051 154.761 120.16C163.193 120.269 171.52 122.158 179.266 125.721C187.012 129.284 194.025 134.45 199.906 140.925C205.786 147.399 210.418 155.055 213.537 163.456C216.656 171.857 218.202 180.837 218.085 189.885L217.451 239.098C217.384 244.319 215.387 249.301 211.899 252.949C208.41 256.596 203.717 258.61 198.851 258.547L107.119 257.365C102.254 257.303 97.6139 255.169 94.2208 251.433C90.8278 247.697 88.9593 242.665 89.0266 237.444L89.6606 188.231Z" fill="#45AAA9"/>
</svg>
