<svg width="60" height="76" viewBox="0 0 60 76" fill="none" xmlns="http://www.w3.org/2000/svg">
<path d="M15.0002 15.5C15.0002 7.2125 21.7127 0.5 30.0002 0.5C38.2877 0.5 45.0002 7.2125 45.0002 15.5C45.0002 23.7875 38.2877 30.5 30.0002 30.5C21.7127 30.5 15.0002 23.7875 15.0002 15.5ZM48.7502 75.5H52.5002C56.6252 75.5 60.0002 72.125 60.0002 68V50.075C60.0002 45.875 57.7127 42.0125 53.9627 40.1C52.3502 39.275 50.6252 38.4875 48.7502 37.775V75.5ZM31.2752 56.75L41.2502 35.4875C37.7627 34.7 34.0127 34.25 30.0002 34.25C20.5127 34.25 12.3377 36.875 6.03774 40.1C4.20796 41.0424 2.67512 42.4735 1.60937 44.2343C0.543612 45.9951 -0.0133701 48.0168 0.000243714 50.075V75.5H8.77524C7.95024 73.8125 7.50024 71.9 7.50024 69.875C7.50024 62.6375 13.3877 56.75 20.6252 56.75H31.2752ZM22.5002 75.5L27.7877 64.25H20.6252C17.5127 64.25 15.0002 66.7625 15.0002 69.875C15.0002 72.9875 17.5127 75.5 20.6252 75.5H22.5002Z" fill="#046B5F"/>
</svg>
