<svg width="95" height="89" viewBox="0 0 95 89" fill="none" xmlns="http://www.w3.org/2000/svg">
<path d="M71.7139 41.0361C70.2913 41.0361 68.9616 40.8815 67.7246 40.5723L65.3589 46.3242L59.8853 44.0513L62.251 38.2993C59.9626 36.8459 58.0916 34.9749 56.6382 32.6865L50.8862 35.0522L48.6133 29.5786L54.3652 27.2129C54.056 25.9759 53.9014 24.6462 53.9014 23.2236C53.9014 21.8011 54.056 20.4714 54.3652 19.2344L48.6133 16.8687L50.8862 11.395L56.6382 13.7607C58.0916 11.4723 59.9626 9.6014 62.251 8.14795L59.8853 2.44238L65.3589 0.169434L67.7246 5.875C68.9616 5.56576 70.2913 5.41113 71.7139 5.41113C73.1364 5.41113 74.4661 5.56576 75.7031 5.875L78.0688 0.169434L83.5425 2.44238L81.1768 8.14795C83.4652 9.6014 85.3361 11.4723 86.7896 13.7607L92.5415 11.395L94.7681 16.8687L89.0625 19.2344C89.3717 20.4714 89.5264 21.8011 89.5264 23.2236C89.5264 24.6462 89.3717 25.9759 89.0625 27.2129L94.7681 29.5786L92.5415 35.0522L86.7896 32.6865C85.3361 34.9749 83.4652 36.8459 81.1768 38.2993L83.5425 44.0513L78.0688 46.3242L75.7031 40.5723C74.4661 40.8815 73.1364 41.0361 71.7139 41.0361ZM71.7139 11.3486C70.0749 11.3486 68.5441 11.6579 67.1216 12.2764C65.6991 12.8949 64.4312 13.7453 63.3179 14.8276C62.2046 15.91 61.3542 17.1624 60.7666 18.585C60.179 20.0075 59.8698 21.5537 59.8389 23.2236C59.8389 24.8626 60.1481 26.3934 60.7666 27.8159C61.3851 29.2384 62.2355 30.5063 63.3179 31.6196C64.4002 32.7329 65.6527 33.5833 67.0752 34.1709C68.4977 34.7585 70.0439 35.0677 71.7139 35.0986C73.3529 35.0986 74.8836 34.7894 76.3062 34.1709C77.7287 33.5524 78.9966 32.702 80.1099 31.6196C81.2231 30.5373 82.0736 29.2848 82.6611 27.8623C83.2487 26.4398 83.5579 24.8936 83.5889 23.2236C83.5889 21.5846 83.2796 20.0539 82.6611 18.6313C82.0426 17.2088 81.1922 15.9409 80.1099 14.8276C79.0275 13.7144 77.7751 12.8639 76.3525 12.2764C74.93 11.6888 73.3838 11.3796 71.7139 11.3486ZM51.3965 42.6133L53.6694 48.1333L47.3145 50.731C47.7474 52.4627 47.9639 54.179 47.9639 55.8799C47.9639 57.5807 47.7474 59.297 47.3145 61.0288L53.6694 63.6729L51.3965 69.1465L45.0415 66.5024C44.1138 68.0796 43.0623 69.4403 41.8872 70.5845C40.7121 71.7287 39.3514 72.7956 37.8052 73.7852L40.4492 80.1401L34.9292 82.3667L32.3315 76.0117C30.5998 76.4447 28.8835 76.6611 27.1826 76.6611C25.4818 76.6611 23.7655 76.4447 22.0337 76.0117L19.3896 82.3667L13.916 80.1401L16.5601 73.7852C14.9829 72.7956 13.6222 71.7287 12.478 70.5845C11.3338 69.4403 10.2669 68.0796 9.27734 66.5024L2.92236 69.1465L0.695801 63.6729L7.05078 61.0288C6.61784 59.297 6.40137 57.5807 6.40137 55.8799C6.40137 54.179 6.61784 52.4627 7.05078 50.731L0.695801 48.1333L2.92236 42.6133L9.27734 45.2573C10.2669 43.7111 11.3338 42.3504 12.478 41.1753C13.6222 40.0002 14.9829 38.9487 16.5601 38.021L13.916 31.666L19.3896 29.3931L22.0337 35.748C23.7655 35.3151 25.4818 35.0986 27.1826 35.0986C28.8835 35.0986 30.5998 35.3151 32.3315 35.748L34.9292 29.3931L40.4492 31.666L37.8052 38.021C40.8049 39.8455 43.217 42.2576 45.0415 45.2573L51.3965 42.6133ZM27.1826 70.7236C29.2236 70.7236 31.141 70.3371 32.9346 69.564C34.7282 68.7909 36.2899 67.7394 37.6196 66.4097C38.9494 65.0799 40.0163 63.5028 40.8203 61.6782C41.6243 59.8537 42.0264 57.9209 42.0264 55.8799C42.0264 53.8389 41.6398 51.9216 40.8667 50.1279C40.0936 48.3343 39.0267 46.7726 37.666 45.4429C36.3053 44.1131 34.7282 43.0462 32.9346 42.2422C31.141 41.4382 29.2236 41.0361 27.1826 41.0361C25.1416 41.0361 23.2243 41.4227 21.4307 42.1958C19.637 42.9689 18.0599 44.0358 16.6992 45.3965C15.3385 46.7572 14.2716 48.3343 13.4985 50.1279C12.7254 51.9216 12.3389 53.8389 12.3389 55.8799C12.3389 57.9209 12.7254 59.8382 13.4985 61.6318C14.2716 63.4255 15.3231 65.0026 16.6528 66.3633C17.9826 67.724 19.5597 68.7909 21.3843 69.564C23.2088 70.3371 25.1416 70.7236 27.1826 70.7236ZM94.8608 63.6265L84.3774 74.1562L94.8608 84.686L90.686 88.8608L80.1562 78.3311L69.6265 88.8608L65.4517 84.686L75.9814 74.1562L65.4517 63.6265L69.6265 59.4517L80.1562 69.9814L90.686 59.4517L94.8608 63.6265Z" fill="#046B5F"/>
</svg>
